<mxfile host="app.diagrams.net" modified="2021-12-25T11:56:54.107Z" agent="5.0 (Windows NT 10.0; Win64; x64) AppleWebKit/537.36 (KHTML, like Gecko) Chrome/96.0.4664.110 Safari/537.36" etag="_WKXjdziJZVg-eRFUz7b" version="16.0.3" type="github">
  <diagram id="MVHSQgy4ugr2mBrsH1ho" name="Страница 1">
    <mxGraphModel dx="1662" dy="788" grid="1" gridSize="10" guides="1" tooltips="1" connect="1" arrows="1" fold="1" page="1" pageScale="1" pageWidth="827" pageHeight="1169" math="0" shadow="0">
      <root>
        <mxCell id="0" />
        <mxCell id="1" parent="0" />
        <mxCell id="Gu985xNvsTtnjAOQGbtF-3" value="Отправка запроса на поиск" style="ellipse;whiteSpace=wrap;html=1;" parent="1" vertex="1">
          <mxGeometry x="414" y="10" width="120" height="70" as="geometry" />
        </mxCell>
        <mxCell id="Gu985xNvsTtnjAOQGbtF-4" value="Дает предварительное согласие на осмотр авто" style="ellipse;whiteSpace=wrap;html=1;" parent="1" vertex="1">
          <mxGeometry x="400" y="80" width="140" height="70" as="geometry" />
        </mxCell>
        <mxCell id="Gu985xNvsTtnjAOQGbtF-5" value="Выбор авто из просмотренных" style="ellipse;whiteSpace=wrap;html=1;" parent="1" vertex="1">
          <mxGeometry x="400" y="150" width="130" height="60" as="geometry" />
        </mxCell>
        <mxCell id="Gu985xNvsTtnjAOQGbtF-6" value="Оплата" style="ellipse;whiteSpace=wrap;html=1;" parent="1" vertex="1">
          <mxGeometry x="395" y="210" width="130" height="60" as="geometry" />
        </mxCell>
        <mxCell id="Gu985xNvsTtnjAOQGbtF-7" value="Принятие запроса" style="ellipse;whiteSpace=wrap;html=1;" parent="1" vertex="1">
          <mxGeometry x="360" y="370" width="151" height="80" as="geometry" />
        </mxCell>
        <mxCell id="Gu985xNvsTtnjAOQGbtF-8" value="Поиск автомобилей (онлайн)" style="ellipse;whiteSpace=wrap;html=1;" parent="1" vertex="1">
          <mxGeometry x="370.5" y="450" width="130" height="60" as="geometry" />
        </mxCell>
        <mxCell id="Gu985xNvsTtnjAOQGbtF-9" value="Проверка автомобилей офлайн" style="ellipse;whiteSpace=wrap;html=1;" parent="1" vertex="1">
          <mxGeometry x="370.5" y="510" width="130" height="60" as="geometry" />
        </mxCell>
        <mxCell id="Gu985xNvsTtnjAOQGbtF-16" value="" style="endArrow=none;html=1;exitX=0.5;exitY=0.5;exitDx=0;exitDy=0;exitPerimeter=0;endFill=0;entryX=0;entryY=0.5;entryDx=0;entryDy=0;" parent="1" source="3g2CW0CUHsT9tV2FFtKM-1" target="Gu985xNvsTtnjAOQGbtF-3" edge="1">
          <mxGeometry width="50" height="50" relative="1" as="geometry">
            <mxPoint x="220" y="180" as="sourcePoint" />
            <mxPoint x="610" y="45" as="targetPoint" />
          </mxGeometry>
        </mxCell>
        <mxCell id="Gu985xNvsTtnjAOQGbtF-17" value="" style="endArrow=none;html=1;entryX=0;entryY=0.5;entryDx=0;entryDy=0;exitX=0.5;exitY=0.5;exitDx=0;exitDy=0;exitPerimeter=0;endFill=0;" parent="1" source="3g2CW0CUHsT9tV2FFtKM-1" target="Gu985xNvsTtnjAOQGbtF-4" edge="1">
          <mxGeometry width="50" height="50" relative="1" as="geometry">
            <mxPoint x="220" y="180" as="sourcePoint" />
            <mxPoint x="570" y="60" as="targetPoint" />
          </mxGeometry>
        </mxCell>
        <mxCell id="Gu985xNvsTtnjAOQGbtF-18" value="" style="endArrow=none;html=1;exitX=0.5;exitY=0.5;exitDx=0;exitDy=0;exitPerimeter=0;endFill=0;" parent="1" source="3g2CW0CUHsT9tV2FFtKM-1" target="Gu985xNvsTtnjAOQGbtF-5" edge="1">
          <mxGeometry width="50" height="50" relative="1" as="geometry">
            <mxPoint x="220" y="180" as="sourcePoint" />
            <mxPoint x="570" y="60" as="targetPoint" />
          </mxGeometry>
        </mxCell>
        <mxCell id="Gu985xNvsTtnjAOQGbtF-19" value="" style="endArrow=none;html=1;entryX=0;entryY=0.5;entryDx=0;entryDy=0;exitX=0.5;exitY=0.5;exitDx=0;exitDy=0;exitPerimeter=0;endFill=0;" parent="1" source="3g2CW0CUHsT9tV2FFtKM-1" target="Gu985xNvsTtnjAOQGbtF-6" edge="1">
          <mxGeometry width="50" height="50" relative="1" as="geometry">
            <mxPoint x="220" y="180" as="sourcePoint" />
            <mxPoint x="570" y="60" as="targetPoint" />
          </mxGeometry>
        </mxCell>
        <mxCell id="Gu985xNvsTtnjAOQGbtF-20" value="" style="endArrow=none;html=1;entryX=0;entryY=0.5;entryDx=0;entryDy=0;exitX=0.5;exitY=0.5;exitDx=0;exitDy=0;exitPerimeter=0;endFill=0;" parent="1" source="3g2CW0CUHsT9tV2FFtKM-5" target="Gu985xNvsTtnjAOQGbtF-7" edge="1">
          <mxGeometry width="50" height="50" relative="1" as="geometry">
            <mxPoint x="220" y="480" as="sourcePoint" />
            <mxPoint x="570" y="360" as="targetPoint" />
          </mxGeometry>
        </mxCell>
        <mxCell id="Gu985xNvsTtnjAOQGbtF-21" value="" style="endArrow=none;html=1;entryX=0;entryY=0.5;entryDx=0;entryDy=0;exitX=0.5;exitY=0.5;exitDx=0;exitDy=0;exitPerimeter=0;endFill=0;" parent="1" source="3g2CW0CUHsT9tV2FFtKM-5" target="Gu985xNvsTtnjAOQGbtF-8" edge="1">
          <mxGeometry width="50" height="50" relative="1" as="geometry">
            <mxPoint x="220" y="480" as="sourcePoint" />
            <mxPoint x="570" y="360" as="targetPoint" />
          </mxGeometry>
        </mxCell>
        <mxCell id="Gu985xNvsTtnjAOQGbtF-22" value="" style="endArrow=none;html=1;exitX=0.5;exitY=0.5;exitDx=0;exitDy=0;exitPerimeter=0;entryX=0;entryY=0.5;entryDx=0;entryDy=0;endFill=0;" parent="1" source="3g2CW0CUHsT9tV2FFtKM-5" target="Gu985xNvsTtnjAOQGbtF-9" edge="1">
          <mxGeometry width="50" height="50" relative="1" as="geometry">
            <mxPoint x="220" y="480" as="sourcePoint" />
            <mxPoint x="580" y="500" as="targetPoint" />
          </mxGeometry>
        </mxCell>
        <mxCell id="Gu985xNvsTtnjAOQGbtF-23" value="" style="endArrow=none;html=1;entryX=0;entryY=0.5;entryDx=0;entryDy=0;exitX=0.5;exitY=0.5;exitDx=0;exitDy=0;exitPerimeter=0;endFill=0;" parent="1" source="3g2CW0CUHsT9tV2FFtKM-5" target="Gu985xNvsTtnjAOQGbtF-26" edge="1">
          <mxGeometry width="50" height="50" relative="1" as="geometry">
            <mxPoint x="200" y="480" as="sourcePoint" />
            <mxPoint x="589" y="640" as="targetPoint" />
          </mxGeometry>
        </mxCell>
        <mxCell id="Gu985xNvsTtnjAOQGbtF-24" value="Подтверждение оплаты" style="ellipse;whiteSpace=wrap;html=1;" parent="1" vertex="1">
          <mxGeometry x="370.5" y="570" width="130" height="60" as="geometry" />
        </mxCell>
        <mxCell id="Gu985xNvsTtnjAOQGbtF-25" value="" style="endArrow=none;html=1;exitX=0.5;exitY=0.5;exitDx=0;exitDy=0;exitPerimeter=0;endFill=0;entryX=0.008;entryY=0.617;entryDx=0;entryDy=0;entryPerimeter=0;" parent="1" source="3g2CW0CUHsT9tV2FFtKM-5" target="Gu985xNvsTtnjAOQGbtF-24" edge="1">
          <mxGeometry width="50" height="50" relative="1" as="geometry">
            <mxPoint x="220" y="480" as="sourcePoint" />
            <mxPoint x="609" y="570" as="targetPoint" />
          </mxGeometry>
        </mxCell>
        <mxCell id="Gu985xNvsTtnjAOQGbtF-26" value="Оформление договора" style="ellipse;whiteSpace=wrap;html=1;" parent="1" vertex="1">
          <mxGeometry x="370.5" y="630" width="130" height="60" as="geometry" />
        </mxCell>
        <mxCell id="3g2CW0CUHsT9tV2FFtKM-1" value="клиент&lt;br&gt;" style="shape=umlActor;verticalLabelPosition=bottom;verticalAlign=top;html=1;outlineConnect=0;" parent="1" vertex="1">
          <mxGeometry x="130" y="110" width="40" height="80" as="geometry" />
        </mxCell>
        <mxCell id="3g2CW0CUHsT9tV2FFtKM-5" value="автоподборщик" style="shape=umlActor;verticalLabelPosition=bottom;verticalAlign=top;html=1;outlineConnect=0;" parent="1" vertex="1">
          <mxGeometry x="130" y="470" width="40" height="80" as="geometry" />
        </mxCell>
        <mxCell id="3g2CW0CUHsT9tV2FFtKM-6" value="Предоплата" style="ellipse;whiteSpace=wrap;html=1;" parent="1" vertex="1">
          <mxGeometry x="670" y="70" width="120" height="80" as="geometry" />
        </mxCell>
        <mxCell id="3g2CW0CUHsT9tV2FFtKM-9" value="Include" style="endArrow=classic;html=1;exitX=0;exitY=0.5;exitDx=0;exitDy=0;entryX=1;entryY=0.5;entryDx=0;entryDy=0;dashed=1;" parent="1" source="3g2CW0CUHsT9tV2FFtKM-6" target="Gu985xNvsTtnjAOQGbtF-3" edge="1">
          <mxGeometry relative="1" as="geometry">
            <mxPoint x="460" y="330" as="sourcePoint" />
            <mxPoint x="610" y="160" as="targetPoint" />
          </mxGeometry>
        </mxCell>
        <mxCell id="3g2CW0CUHsT9tV2FFtKM-15" value="Отправка" style="ellipse;whiteSpace=wrap;html=1;" parent="1" vertex="1">
          <mxGeometry x="620" y="470" width="120" height="60" as="geometry" />
        </mxCell>
        <mxCell id="3g2CW0CUHsT9tV2FFtKM-16" value="" style="endArrow=classic;html=1;entryX=1;entryY=0.5;entryDx=0;entryDy=0;exitX=0;exitY=0.5;exitDx=0;exitDy=0;dashed=1;" parent="1" source="3g2CW0CUHsT9tV2FFtKM-15" target="Gu985xNvsTtnjAOQGbtF-8" edge="1">
          <mxGeometry width="50" height="50" relative="1" as="geometry">
            <mxPoint x="620" y="580" as="sourcePoint" />
            <mxPoint x="670" y="530" as="targetPoint" />
          </mxGeometry>
        </mxCell>
        <mxCell id="3g2CW0CUHsT9tV2FFtKM-17" value="Extend" style="edgeLabel;html=1;align=center;verticalAlign=middle;resizable=0;points=[];" parent="3g2CW0CUHsT9tV2FFtKM-16" vertex="1" connectable="0">
          <mxGeometry x="-0.365" relative="1" as="geometry">
            <mxPoint x="-1" as="offset" />
          </mxGeometry>
        </mxCell>
      </root>
    </mxGraphModel>
  </diagram>
</mxfile>
